<svg height="512pt" viewBox="-11 0 512 512" width="512pt" xmlns="http://www.w3.org/2000/svg"><path d="m394.6875 234.667969c-69.289062 0-74.664062-73.472657-74.664062-96 0-5.890625-4.78125-10.667969-10.667969-10.667969h-128c-5.886719 0-10.667969 4.777344-10.667969 10.667969 0 22.527343-5.375 96-74.664062 96-5.890626 0-10.667969 4.777343-10.667969 10.664062v213.335938c0 29.394531 23.9375 53.332031 53.332031 53.332031h213.335938c29.394531 0 53.332031-23.9375 53.332031-53.332031v-213.335938c0-5.886719-4.777344-10.664062-10.667969-10.664062zm0 0" fill="#cfd8dc"/><path d="m245.355469 0c-41.171875 0-74.667969 33.492188-74.667969 74.667969v64c0 5.886719 4.78125 10.664062 10.667969 10.664062h128c5.886719 0 10.667969-4.777343 10.667969-10.664062v-64c0-41.175781-33.496094-74.667969-74.667969-74.667969zm0 0" fill="#b0bec5"/><path d="m352.023438 512h-213.335938c-29.394531 0-53.332031-23.9375-53.332031-53.332031v-213.335938c0-5.886719 4.777343-10.664062 10.667969-10.664062 69.289062 0 74.664062-73.472657 74.664062-96 0-5.890625 4.78125-10.667969 10.667969-10.667969h128c5.886719 0 10.667969 4.777344 10.667969 10.667969 0 22.527343 5.375 96 74.664062 96 5.890625 0 10.667969 4.777343 10.667969 10.664062v213.335938c0 29.394531-23.9375 53.332031-53.332031 53.332031zm-245.335938-256.511719v203.179688c0 17.640625 14.359375 32 32 32h213.335938c17.640624 0 32-14.359375 32-32v-203.179688c-50.113282-4.84375-81.816407-44.351562-85.058594-106.15625h-107.21875c-3.242188 61.804688-34.945313 101.3125-85.058594 106.15625zm0 0"/><path d="m309.355469 149.332031c-5.886719 0-10.667969-4.777343-10.667969-10.664062v-64c0-29.398438-23.933594-53.335938-53.332031-53.335938-29.398438 0-53.332031 23.9375-53.332031 53.335938v64c0 5.886719-4.78125 10.664062-10.667969 10.664062s-10.667969-4.777343-10.667969-10.664062v-64c0-41.175781 33.496094-74.667969 74.667969-74.667969s74.667969 33.492188 74.667969 74.667969v64c0 5.886719-4.78125 10.664062-10.667969 10.664062zm0 0"/><path d="m288.023438 320h-85.335938c-5.886719 0-10.664062-4.777344-10.664062-10.667969v-42.664062c0-5.890625 4.777343-10.667969 10.664062-10.667969 5.890625 0 10.667969 4.777344 10.667969 10.667969v32h64v-32c0-5.890625 4.777343-10.667969 10.667969-10.667969 5.886718 0 10.664062 4.777344 10.664062 10.667969v42.664062c0 5.890625-4.777344 10.667969-10.664062 10.667969zm0 0"/><path d="m394.6875 256c-5.160156 0-9.707031-3.753906-10.515625-9.003906-.917969-5.824219 3.050781-11.285156 8.875-12.203125 38.507813-6.078125 53.929687-15.273438 55.019531-32.808594 1.8125-29.097656 13.183594-54.933594 23.210938-69.398437 3.347656-4.84375 9.980468-6.078126 14.847656-2.6875 4.839844 3.347656 6.058594 10.003906 2.6875 14.847656-8 11.5625-17.898438 33.835937-19.457031 58.601562-2.601563 41.429688-50.132813 48.917969-72.980469 52.523438-.578125.085937-1.152344.128906-1.6875.128906zm0 0"/><path d="m96.023438 256c-3.371094 0-6.699219-1.601562-8.769532-4.585938-5.886718-8.46875-24.320312-32.023437-38.675781-39.210937-6.335937-3.15625-12.160156 1.300781-22.082031 11.796875-3.839844 4.074219-7.167969 7.59375-11.050782 9.535156-5.269531 2.625-11.667968.492188-14.3125-4.777344-2.648437-5.269531-.492187-11.667968 4.777344-14.316406.746094-.511718 3.265625-3.15625 5.097656-5.097656 8.917969-9.429688 25.535157-27.027344 47.105469-16.234375 21.800781 10.902344 44.179688 42.558594 46.65625 46.121094 3.371094 4.84375 2.152344 11.480469-2.667969 14.847656-1.855468 1.304687-3.96875 1.921875-6.078124 1.921875zm0 0"/></svg>