<svg height="512pt" viewBox="0 0 512 512" width="512pt" xmlns="http://www.w3.org/2000/svg"><path d="m271 0v91.761719c29.4375 2.667969 56.617188 13.113281 79.570312 29.238281h17.410157c-21.628907-61.257812-56.660157-111.40625-96.980469-121zm0 0"/><path d="m144.019531 121h17.410157c22.953124-16.125 50.132812-26.570312 79.570312-29.238281v-91.761719c-40.320312 9.59375-75.351562 59.742188-96.980469 121zm0 0"/><path d="m121 256c0 74.441406 60.558594 135 135 135s135-60.558594 135-135-60.558594-135-135-135-135 60.558594-135 135zm210-74.984375-37.570312 50.074219c1.042968 1.5625 1.851562 3.273437 2.699218 4.964844l62.320313-7.503907c1.304687 11.863281 2.550781 17.789063 2.550781 27.449219 0 42.113281-25.019531 80.023438-63.734375 96.578125l-13.800781 5.902344-24.679688-57.761719c-.9375.058594-1.832031.28125-2.785156.28125s-1.847656-.222656-2.785156-.28125l-24.679688 57.761719-13.800781-5.902344c-38.714844-16.554687-63.734375-54.464844-63.734375-96.578125 0-9.660156 1.25-15.621094 2.550781-27.449219l62.320313 7.503907c.847656-1.691407 1.65625-3.402344 2.699218-4.964844l-37.570312-50.074219 11.980469-9.007813c36.566406-27.480468 89.472656-27.480468 126.035156 0zm0 0"/><path d="m0 241h91.484375c1.128906-30.585938 5.484375-61.078125 12.828125-90h-80.425781c-12.597657 27.730469-22.015625 58.070312-23.886719 90zm0 0"/><path d="m181.25 262.109375c1.828125 22.558594 13.710938 42.902344 32.078125 55.605469l12.277344-28.742188c-6.609375-6.097656-11.414063-14.066406-13.449219-23.144531zm0 0"/><path d="m223.890625 188.191406 18.796875 25.046875c4.234375-1.324219 8.648438-2.238281 13.3125-2.238281s9.078125.914062 13.3125 2.238281l18.796875-25.046875c-19.890625-9.460937-44.328125-9.460937-64.21875 0zm0 0"/><path d="m23.886719 361h80.425781c-7.34375-28.921875-11.699219-59.414062-12.828125-90h-91.484375c1.871094 31.929688 11.289062 62.269531 23.886719 90zm0 0"/><path d="m298.671875 317.714844c18.367187-12.699219 30.25-33.046875 32.078125-55.605469l-30.90625 3.722656c-2.035156 9.074219-6.839844 17.042969-13.449219 23.140625zm0 0"/><path d="m256 241c-8.277344 0-15 6.722656-15 15s6.722656 15 15 15 15-6.722656 15-15-6.722656-15-15-15zm0 0"/><path d="m340.832031 12.914062c23.925781 26.726563 43.890625 66.335938 57.910157 108.085938h73.195312c-30.367188-48.398438-76.429688-88.714844-131.105469-108.085938zm0 0"/><path d="m241 512v-91.761719c-29.4375-2.667969-56.617188-13.113281-79.570312-29.238281h-17.410157c21.628907 61.257812 56.660157 111.40625 96.980469 121zm0 0"/><path d="m40.0625 391c30.367188 48.398438 76.429688 88.714844 131.105469 108.085938-23.925781-26.726563-43.890625-66.335938-57.910157-108.085938zm0 0"/><path d="m398.742188 391c-14.019532 41.75-33.984376 81.359375-57.910157 108.085938 54.675781-19.371094 100.738281-59.6875 131.105469-108.085938zm0 0"/><path d="m40.0625 121h73.195312c14.019532-41.75 33.984376-81.359375 57.910157-108.085938-54.675781 19.371094-100.738281 59.6875-131.105469 108.085938zm0 0"/><path d="m512 271h-91.484375c-1.128906 30.585938-5.484375 61.078125-12.828125 90h80.425781c12.597657-27.730469 22.015625-58.070312 23.886719-90zm0 0"/><path d="m350.570312 391c-22.953124 16.125-50.132812 26.570312-79.570312 29.238281v91.761719c40.320312-9.59375 75.351562-59.742188 96.980469-121zm0 0"/><path d="m488.113281 151h-80.425781c7.34375 28.921875 11.699219 59.414062 12.828125 90h91.484375c-1.871094-31.929688-11.289062-62.269531-23.886719-90zm0 0"/></svg>